<svg width="40" height="34" viewBox="0 0 40 34" fill="none" xmlns="http://www.w3.org/2000/svg">
<path d="M35.9049 8.84015C35.9293 9.19278 35.9293 9.54541 35.9293 9.90129C35.9293 20.7451 27.6742 33.2513 12.5793 33.2513V33.2448C8.12025 33.2513 3.75381 31.974 0 29.5657C0.648385 29.6437 1.30002 29.6827 1.95328 29.6843C5.64859 29.6876 9.23827 28.4477 12.1454 26.1645C8.63376 26.0979 5.55434 23.8083 4.47857 20.4656C5.70871 20.7028 6.97623 20.6541 8.18363 20.3242C4.35507 19.5507 1.60065 16.1869 1.60065 12.2803C1.60065 12.2446 1.60065 12.2104 1.60065 12.1763C2.74142 12.8117 4.01869 13.1643 5.32521 13.2033C1.71928 10.7934 0.607759 5.99635 2.78529 2.24579C6.95186 7.37275 13.0993 10.4895 19.6986 10.8194C19.0372 7.96913 19.9407 4.98234 22.0727 2.97868C25.378 -0.128369 30.5765 0.0308836 33.6835 3.33456C35.5214 2.97218 37.283 2.29779 38.895 1.34228C38.2823 3.24193 37.0002 4.85558 35.2874 5.88097C36.9141 5.68922 38.5034 5.25371 40 4.58908C38.8982 6.2401 37.5105 7.67825 35.9049 8.84015Z" fill="black"/>
</svg>
